<?xml version="1.0" encoding="UTF-8"?>
<svg id="Layer_2" data-name="Layer 2" xmlns="http://www.w3.org/2000/svg" viewBox="0 0 517.21 100.4">
  <defs>
    <style>
      .cls-1 {
        fill: #59595c;
      }

      .cls-1, .cls-2, .cls-3, .cls-4, .cls-5 {
        stroke-width: 0px;
      }

      .cls-2 {
        fill: #6d6e71;
      }

      .cls-3 {
        fill: #646666;
      }

      .cls-4 {
        fill: #fcb917;
      }

      .cls-5 {
        fill: #f89520;
      }
    </style>
  </defs>
  <g id="Layer_1-2" data-name="Layer 1">
    <g>
      <g>
        <path class="cls-3" d="M100.75,73.09V23.17h7.53l9.37,33.71,9.29-33.71h7.53v49.92h-5.38V31.77l-8.99,32.1h-4.99l-8.99-32.1v41.32h-5.38Z"/>
        <path class="cls-3" d="M152.58,73.09v-14.13c-3.53-.41-5.16-1.54-6.87-3.38-1.72-1.84-2.57-4.25-2.57-7.22v-15.19h5.38v15.19c0,1.89.64,3.39,1.92,4.49,1.28,1.1,2.23,1.65,4.84,1.65s3.47-.55,4.72-1.65c1.25-1.1,1.88-2.6,1.88-4.49v-15.19h5.38v15.19c0,2.97-.85,5.38-2.53,7.22-1.69,1.84-3.28,2.97-6.76,3.38v14.13h-5.38Z"/>
        <path class="cls-3" d="M196.73,59.26h5.38v4.22c0,3.33-1.02,5.95-3.07,7.87-2.05,1.92-5.22,2.88-9.52,2.88s-7.5-.96-9.6-2.88c-2.1-1.92-3.15-4.54-3.15-7.87v-30.72c0-3.33,1.02-5.95,3.07-7.87,2.05-1.92,5.22-2.88,9.52-2.88s7.5.96,9.6,2.88c2.1,1.92,3.15,4.54,3.15,7.87v7.3h-5.38v-7.3c0-1.95-.6-3.46-1.8-4.53s-3.06-1.61-5.57-1.61-4.28.54-5.45,1.61-1.77,2.59-1.77,4.53v30.72c0,1.89.6,3.39,1.81,4.49,1.2,1.1,3.06,1.65,5.57,1.65s4.27-.55,5.45-1.65c1.18-1.1,1.77-2.6,1.77-4.49v-4.22Z"/>
        <path class="cls-3" d="M214.78,23.17h5.38v40.32c0,1.74.38,3.2,1.15,4.38.77,1.18,2.33,1.77,4.68,1.77,1.64,0,3.15-.42,4.53-1.27,1.38-.84,2.5-1.87,3.34-3.07.84-1.2,1.27-2.32,1.27-3.34V23.17h5.38v49.92h-2.3l-2-4.92c-1.08,1.74-2.5,3.19-4.26,4.34-1.77,1.15-3.72,1.73-5.88,1.73-2.76,0-4.98-.47-6.64-1.42-1.67-.95-2.86-2.24-3.57-3.88-.72-1.64-1.08-3.46-1.08-5.45V23.17Z"/>
        <path class="cls-3" d="M255.86,73.09V23.17h2.3l2.23,5.68c.72-1.95,1.69-3.57,2.92-4.88,1.23-1.31,2.87-1.96,4.92-1.96,2.97,0,5.23.83,6.8,2.5,1.56,1.66,2.34,4.16,2.34,7.49v4.99h-5.15v-5.3c0-1.48-.33-2.7-1-3.65-.67-.95-1.74-1.42-3.23-1.42-.97,0-1.99.38-3.03,1.15-1.05.77-1.93,1.98-2.65,3.65-.72,1.66-1.08,3.85-1.08,6.57v35.1h-5.38Z"/>
        <path class="cls-3" d="M286.58,73.09V23.17h2.3l2.23,5.68c.72-1.95,1.69-3.57,2.92-4.88,1.23-1.31,2.87-1.96,4.92-1.96,2.97,0,5.23.83,6.8,2.5,1.56,1.66,2.34,4.16,2.34,7.49v4.99h-5.15v-5.3c0-1.48-.33-2.7-1-3.65-.67-.95-1.74-1.42-3.23-1.42-.97,0-1.99.38-3.03,1.15-1.05.77-1.93,1.98-2.65,3.65-.72,1.66-1.08,3.85-1.08,6.57v35.1h-5.38Z"/>
        <path class="cls-3" d="M336.12,59.26h5.38v4.22c0,3.33-1.02,5.95-3.07,7.87-2.05,1.92-5.22,2.88-9.52,2.88s-7.5-.96-9.6-2.88c-2.1-1.92-3.15-4.54-3.15-7.87v-30.72c0-3.33,1.02-5.95,3.07-7.87,2.05-1.92,5.22-2.88,9.52-2.88s7.5.96,9.6,2.88c2.1,1.92,3.15,4.54,3.15,7.87v16.9h-19.97v13.82c0,1.89.6,3.39,1.81,4.49,1.2,1.1,3.06,1.65,5.57,1.65s4.27-.55,5.45-1.65c1.18-1.1,1.77-2.6,1.77-4.49v-4.22ZM321.53,45.06h14.59v-12.29c0-1.95-.6-3.46-1.8-4.53s-3.06-1.61-5.57-1.61-4.28.54-5.45,1.61-1.77,2.59-1.77,4.53v12.29Z"/>
        <path class="cls-3" d="M355.7,73.09V23.17h2.3l1.92,4.99c1.08-1.79,2.5-3.26,4.26-4.42s3.75-1.73,5.95-1.73c2.82,0,5.04.47,6.68,1.42,1.64.95,2.81,2.23,3.53,3.84.72,1.61,1.08,3.44,1.08,5.49v40.32h-5.38v-40.32c0-1.74-.37-3.2-1.11-4.38-.74-1.18-2.32-1.77-4.72-1.77-1.59,0-3.09.42-4.49,1.27-1.41.85-2.53,1.87-3.38,3.07-.84,1.2-1.27,2.32-1.27,3.34v38.78h-5.38Z"/>
        <path class="cls-3" d="M414.83,59.26h5.38v4.22c0,3.33-1.02,5.95-3.07,7.87-2.05,1.92-5.22,2.88-9.52,2.88s-7.5-.96-9.6-2.88c-2.1-1.92-3.15-4.54-3.15-7.87v-30.72c0-3.33,1.02-5.95,3.07-7.87,2.05-1.92,5.22-2.88,9.52-2.88s7.5.96,9.6,2.88c2.1,1.92,3.15,4.54,3.15,7.87v7.3h-5.38v-7.3c0-1.95-.6-3.46-1.8-4.53s-3.06-1.61-5.57-1.61-4.28.54-5.45,1.61-1.77,2.59-1.77,4.53v30.72c0,1.89.6,3.39,1.81,4.49,1.2,1.1,3.06,1.65,5.57,1.65s4.27-.55,5.45-1.65c1.18-1.1,1.77-2.6,1.77-4.49v-4.22Z"/>
        <path class="cls-3" d="M433.65,73.09V23.17h5.38v49.92h-5.38Z"/>
        <path class="cls-3" d="M473.2,59.26h5.38v4.22c0,3.33-1.02,5.95-3.07,7.87-2.05,1.92-5.22,2.88-9.52,2.88s-7.5-.96-9.6-2.88c-2.1-1.92-3.15-4.54-3.15-7.87v-30.72c0-3.33,1.02-5.95,3.07-7.87,2.05-1.92,5.22-2.88,9.52-2.88s7.5.96,9.6,2.88c2.1,1.92,3.15,4.54,3.15,7.87v16.9h-19.97v13.82c0,1.89.6,3.39,1.81,4.49,1.2,1.1,3.06,1.65,5.57,1.65s4.27-.55,5.45-1.65c1.18-1.1,1.77-2.6,1.77-4.49v-4.22ZM458.61,45.06h14.59v-12.29c0-1.95-.6-3.46-1.8-4.53s-3.06-1.61-5.57-1.61-4.28.54-5.45,1.61-1.77,2.59-1.77,4.53v12.29Z"/>
        <path class="cls-3" d="M513.29,53.04c1.54,1.64,2.57,3.23,3.11,4.76.54,1.54.81,3.43.81,5.68,0,3.33-1.02,5.95-3.07,7.87-2.05,1.92-5.35,2.88-9.91,2.88s-7.79-.96-9.87-2.88c-2.07-1.92-3.11-4.54-3.11-7.87v-6.53h5.38v6.84c0,1.74.63,3.15,1.88,4.22,1.25,1.08,3.16,1.61,5.72,1.61s4.47-.54,5.72-1.61c1.25-1.08,1.88-2.48,1.88-4.22,0-1.59-.17-2.92-.5-3.99s-1.14-2.23-2.42-3.46l-13.52-13.21c-1.59-1.64-2.68-3.23-3.26-4.76-.59-1.54-.88-3.4-.88-5.61,0-3.33,1.05-5.95,3.15-7.87,2.1-1.92,5.32-2.88,9.68-2.88s7.44.96,9.41,2.88c1.97,1.92,2.96,4.54,2.96,7.87v6.53h-5.38v-6.83c0-1.79-.59-3.21-1.77-4.26-1.18-1.05-3-1.57-5.45-1.57s-4.28.53-5.45,1.57c-1.18,1.05-1.77,2.47-1.77,4.26,0,1.59.17,2.92.5,3.99s1.14,2.2,2.42,3.38l13.75,13.21Z"/>
      </g>
      <g>
        <g>
          <path class="cls-1" d="M50.53,82.56c-22.27,0-40.33-18.06-40.33-40.33C10.2,22.58,24.26,6.21,42.87,2.63l-.48-2.63C18.35,3.89,0,24.73,0,49.87c0,27.91,22.62,50.53,50.53,50.53,3.39,0,6.7-.34,9.9-.98l-3.16-17.43c-2.19.37-4.44.57-6.74.57Z"/>
          <path class="cls-2" d="M.42,43.4c3.25.95,6.56,1.75,9.94,2.36-.1-1.17-.16-2.34-.16-3.53C10.2,22.58,24.26,6.21,42.87,2.63l-.48-2.63C20.45,3.55,3.25,21.23.42,43.4Z"/>
        </g>
        <g>
          <path class="cls-5" d="M50.34,5.66C30.29,5.66,14.04,21.91,14.04,41.96s16.25,36.3,36.3,36.3,36.3-16.25,36.3-36.3S70.39,5.66,50.34,5.66ZM45.5,27.07c-2.62-.9-4.59-2.18-4.59-4.05,0-2.1,1.45-3.71,3.74-4.78l.85,8.84ZM21.13,38.79c0-13.91,9.73-25.54,22.75-28.49l.15,1.57c-2.55.7-5.05,1.8-7.04,3.51-7.01,5.98-5.77,15.05,0,18.35,2.93,1.68,6.14,1.92,9.38,2.29l1.59,16.48c-2.79.31-6.86-.28-11.04-.66l-1.58,10.96s7.28,1.72,13.72,1.11l.39,4.05c-15.72-.48-28.32-13.36-28.32-29.19ZM56.29,50.19l-2.34-12.29c.58.28,1.15.61,1.71.99,6.08,4.12,4.22,8.04,2.78,9.69-.39.44-1.08,1.02-2.15,1.6ZM59.4,66.57l-1.04-5.46c5.46-2.8,10.86-6.94,11.96-15.06,1.1-8.14-4.59-12.84-10.11-15.53-.93-.45-5.59-1.53-8.04-1.91l-2.23-11.74c2.25-.25,5.4-.2,7.91.18v-6.19s-4.44-.41-9.03.12l-.25-1.33c.59-.04,1.18-.06,1.77-.06,16.13,0,29.21,13.08,29.21,29.21,0,12.97-8.46,23.96-20.15,27.77Z"/>
          <path class="cls-4" d="M50.34,5.66C30.29,5.66,14.04,21.91,14.04,41.96c0,1.85.14,3.67.41,5.45,2.71.38,5.46.65,8.24.79-1.01-2.95-1.56-6.12-1.56-9.41,0-13.91,9.73-25.54,22.75-28.49l.15,1.57c-2.55.7-5.05,1.8-7.04,3.51-7.01,5.98-5.77,15.05,0,18.35,2.93,1.68,6.14,1.92,9.38,2.29l1,10.4c2.65-.53,5.27-1.18,7.84-1.92l-1.26-6.61c.58.28,1.15.61,1.71.99,2.18,1.48,3.33,2.93,3.86,4.26,3.41-1.16,6.73-2.51,9.96-4.02-1.74-4.08-5.54-6.81-9.25-8.62-.93-.45-5.59-1.53-8.04-1.91l-2.23-11.74c2.25-.25,5.4-.2,7.91.18v-6.19s-4.44-.41-9.03.12l-.25-1.33c.59-.04,1.18-.06,1.77-.06,14.47,0,26.48,10.52,28.8,24.33,1.9-1.17,3.75-2.39,5.56-3.68-4.88-14.29-18.41-24.58-34.36-24.58ZM40.9,23.02c0-2.1,1.45-3.71,3.74-4.78l.85,8.84c-2.62-.9-4.59-2.18-4.59-4.05Z"/>
        </g>
      </g>
    </g>
  </g>
</svg>